<?xml version="1.0" encoding="UTF-8"?>
<svg width="1032px" height="1015px" viewBox="0 0 1032 1015" version="1.1" xmlns="http://www.w3.org/2000/svg" xmlns:xlink="http://www.w3.org/1999/xlink">
    <!-- Generator: Sketch 64 (93537) - https://sketch.com -->
    <title>iMac G5</title>
    <desc>Created with Sketch.</desc>
    <g id="Gadgets-illustrations" stroke="none" stroke-width="1" fill="none" fill-rule="evenodd">
        <g transform="translate(-2735.000000, -4505.000000)" fill="#000000" fill-rule="nonzero" id="18">
            <g transform="translate(2735.000000, 4505.000000)">
                <path d="M972.990623,1.36424205e-12 C1005.58129,1.36424205e-12 1032,26.4175052 1032,59.0083212 L1032,59.0083212 L1032,805.563572 C1032,838.152348 1005.57921,864.571893 972.990404,864.571893 L972.990404,864.571893 L643.484374,864.571054 C643.512999,865.350153 643.54525,866.198592 643.58122,867.112567 C643.742421,871.208621 643.9445,875.773369 644.190319,880.689463 C644.892568,894.733643 645.804118,908.77701 646.947502,921.878749 C649.702749,953.450377 653.445743,974.795288 657.766689,979.502652 C660.342627,982.308954 669.983347,986.72185 680.440801,990.206323 C687.073226,992.416278 693.469134,994.337481 699.389483,995.960354 C701.46,996.527919 703.322403,997.017474 704.946864,997.42786 C705.514123,997.571166 706.010739,997.694254 706.432987,997.796981 C706.684419,997.858151 706.854043,997.898676 706.961375,997.924016 C709.4553,998.540934 711.383147,1001.00517 711.394917,1003.58261 L711.394917,1003.58261 L711.421886,1009.4886 C711.434525,1012.25658 709.205229,1014.50659 706.440359,1014.50659 L706.440359,1014.50659 L325.14036,1014.50659 C322.369719,1014.50659 320.138932,1012.25858 320.151581,1009.4886 L320.151581,1009.4886 L320.17855,1003.58261 C320.19032,1001.00517 322.118167,998.540934 324.635332,997.918414 C324.719423,997.898676 324.889048,997.858151 325.140479,997.796981 C325.562727,997.694254 326.059344,997.571166 326.626603,997.42786 C328.251064,997.017474 330.113467,996.527919 332.183984,995.960354 C338.104333,994.337481 344.50024,992.416278 351.132666,990.206323 C361.590119,986.72185 371.23084,982.308954 373.806778,979.502652 C378.127723,974.795288 381.870718,953.450377 384.625964,921.878749 C385.769349,908.77701 386.680898,894.733643 387.383148,880.689463 C387.628967,875.773369 387.831046,871.208621 387.992247,867.112567 C388.028217,866.198592 388.060467,865.350153 388.089092,864.571054 L58.996483,864.571893 C26.4127286,864.571893 1.36424205e-12,838.154178 1.36424205e-12,805.563572 L1.36424205e-12,805.563572 L1.36424205e-12,59.0083212 C1.36424205e-12,26.4147445 26.4111188,1.36424205e-12 59.0093771,1.36424205e-12 L59.0093771,1.36424205e-12 Z M706.483615,1003.33387 L324.985556,1003.33387 C324.653176,1003.33387 324.359822,1003.49283 324.17714,1003.73846 L324.151539,1009.50687 C324.148998,1010.06339 324.588802,1010.50659 325.14036,1010.50659 L325.14036,1010.50659 L706.440273,1010.50659 L706.555288,1010.49992 C707.045304,1010.44262 707.424285,1010.02307 707.421927,1009.50687 L707.421927,1009.50687 L707.39726,1003.87581 C707.216711,1003.55546 706.870879,1003.33387 706.483615,1003.33387 L706.483615,1003.33387 Z M639.481634,864.569573 L392.091832,864.569573 C392.061744,865.392477 392.027554,866.294097 391.989153,867.269866 C391.827414,871.379579 391.624712,875.958399 391.378157,880.889225 C390.673622,894.979103 389.759001,909.069793 388.610819,922.226506 C385.732342,955.210195 382.000527,976.49135 376.753566,982.207544 C373.533016,985.716105 363.555342,990.283236 352.397138,994.001203 C345.692434,996.235241 339.22818,998.176974 333.241445,999.818044 C331.144483,1000.39286 329.256219,1000.88921 327.606339,1001.30602 C327.569462,1001.31534 327.532872,1001.32457 327.496571,1001.33372 L704.074,1001.333 L703.967128,1001.30602 C702.500568,1000.93552 700.845655,1000.50218 699.023238,1000.00674 L698.332021,999.818044 C692.345287,998.176974 685.881032,996.235241 679.176329,994.001203 C668.018124,990.283236 658.04045,985.716105 654.819901,982.207544 C649.572939,976.49135 645.841124,955.210195 642.962648,922.226506 C641.814466,909.069793 640.899844,894.979103 640.19531,880.889225 C639.948755,875.958399 639.746052,871.379579 639.584314,867.269866 C639.545912,866.294097 639.511723,865.392477 639.481634,864.569573 Z M79.105,852.675 L68.0026187,852.675061 C66.8961057,852.675061 66,853.568127 66,854.667771 L66,854.667771 L66,856.571 L70.905,856.571 L70.9053235,855.894261 C70.9053235,855.039065 71.5590618,854.337269 72.4038598,854.265765 L72.5463492,854.259766 C73.4526626,854.259766 74.1873748,854.987171 74.1873748,855.894261 L74.187,856.571 L87.315,856.571 L87.3155799,855.894261 C87.3155799,855.039065 87.9693182,854.337269 88.8141162,854.265765 L88.9566056,854.259766 C89.862919,854.259766 90.5976312,854.987171 90.5976312,855.894261 L90.597,856.571 L103.725,856.571 L103.725836,855.894261 C103.725836,855.039065 104.379575,854.337269 105.224373,854.265765 L105.366862,854.259766 C106.273175,854.259766 107.007888,854.987171 107.007888,855.894261 L107.007,856.571 L120.136,856.571 L120.136093,855.894261 C120.136093,855.039065 120.789831,854.337269 121.634629,854.265765 L121.777118,854.259766 C122.683432,854.259766 123.418144,854.987171 123.418144,855.894261 L123.418,856.571 L136.546,856.571 L136.546349,855.894261 C136.546349,855.039065 137.200087,854.337269 138.044885,854.265765 L138.187375,854.259766 C139.093688,854.259766 139.8284,854.987171 139.8284,855.894261 L139.828,856.571 L152.956,856.571 L152.956606,855.894261 C152.956606,855.039065 153.610344,854.337269 154.455142,854.265765 L154.597631,854.259766 C155.503945,854.259766 156.238657,854.987171 156.238657,855.894261 L156.238,856.571 L169.366,856.571 L169.366862,855.894261 C169.366862,855.039065 170.0206,854.337269 170.865398,854.265765 L171.007888,854.259766 C171.914201,854.259766 172.648913,854.987171 172.648913,855.894261 L172.648,856.571 L185.777,856.571 L185.777118,855.894261 C185.777118,855.039065 186.430857,854.337269 187.275655,854.265765 L187.418144,854.259766 C188.324457,854.259766 189.05917,854.987171 189.05917,855.894261 L189.059,856.571 L202.187,856.571 L202.187375,855.894261 C202.187375,855.039065 202.841113,854.337269 203.685911,854.265765 L203.8284,854.259766 C204.734714,854.259766 205.469426,854.987171 205.469426,855.894261 L205.469,856.571 L218.597,856.571 L218.597631,855.894261 C218.597631,855.039065 219.251369,854.337269 220.096167,854.265765 L220.238657,854.259766 C221.14497,854.259766 221.879682,854.987171 221.879682,855.894261 L221.879,856.571 L235.007,856.571 L235.007888,855.894261 C235.007888,855.039065 235.661626,854.337269 236.506424,854.265765 L236.648913,854.259766 C237.555227,854.259766 238.289939,854.987171 238.289939,855.894261 L238.289,856.571 L251.418,856.571 L251.418144,855.894261 C251.418144,855.039065 252.071882,854.337269 252.91668,854.265765 L253.05917,854.259766 C253.965483,854.259766 254.700195,854.987171 254.700195,855.894261 L254.7,856.571 L267.828,856.571 L267.8284,855.894261 C267.8284,855.039065 268.482139,854.337269 269.326937,854.265765 L269.469426,854.259766 C270.37574,854.259766 271.110452,854.987171 271.110452,855.894261 L271.11,856.571 L284.238,856.571 L284.238657,855.894261 C284.238657,855.039065 284.892395,854.337269 285.737193,854.265765 L285.879682,854.259766 C286.785996,854.259766 287.520708,854.987171 287.520708,855.894261 L287.52,856.571 L300.648,856.571 L300.648913,855.894261 C300.648913,855.039065 301.302652,854.337269 302.14745,854.265765 L302.289939,854.259766 C303.196252,854.259766 303.930965,854.987171 303.930965,855.894261 L303.93,856.571 L317.059,856.571 L317.05917,855.894261 C317.05917,855.039065 317.712908,854.337269 318.557706,854.265765 L318.700195,854.259766 C319.606509,854.259766 320.341221,854.987171 320.341221,855.894261 L320.341,856.571 L333.469,856.571 L333.469426,855.894261 C333.469426,855.039065 334.123164,854.337269 334.967962,854.265765 L335.110452,854.259766 C336.016765,854.259766 336.751477,854.987171 336.751477,855.894261 L336.751,856.571 L349.879,856.571 L349.879682,855.894261 C349.879682,855.039065 350.533421,854.337269 351.378219,854.265765 L351.520708,854.259766 C352.427022,854.259766 353.161734,854.987171 353.161734,855.894261 L353.161,856.571 L366.289,856.571 L366.289939,855.894261 C366.289939,855.039065 366.943677,854.337269 367.788475,854.265765 L367.930965,854.259766 C368.837278,854.259766 369.57199,854.987171 369.57199,855.894261 L369.571,856.571 L382.7,856.571 L382.700195,855.894261 C382.700195,855.039065 383.353934,854.337269 384.198732,854.265765 L384.341221,854.259766 C385.247534,854.259766 385.982247,854.987171 385.982247,855.894261 L385.982,856.571 L399.11,856.571 L399.110452,855.894261 C399.110452,855.039065 399.76419,854.337269 400.608988,854.265765 L400.751477,854.259766 C401.657791,854.259766 402.392503,854.987171 402.392503,855.894261 L402.392,856.571 L415.52,856.571 L415.520708,855.894261 C415.520708,855.039065 416.174446,854.337269 417.019244,854.265765 L417.161734,854.259766 C418.068047,854.259766 418.802759,854.987171 418.802759,855.894261 L418.802,856.571 L431.93,856.571 L431.930965,855.894261 C431.930965,855.039065 432.584703,854.337269 433.429501,854.265765 L433.57199,854.259766 C434.478304,854.259766 435.213016,854.987171 435.213016,855.894261 L435.213,856.571 L448.341,856.571 L448.341221,855.894261 C448.341221,855.039065 448.994959,854.337269 449.839757,854.265765 L449.982247,854.259766 C450.88856,854.259766 451.623272,854.987171 451.623272,855.894261 L451.623,856.571 L464.751,856.571 L464.751477,855.894261 C464.751477,855.039065 465.405216,854.337269 466.250014,854.265765 L466.392503,854.259766 C467.298816,854.259766 468.033529,854.987171 468.033529,855.894261 L468.033,856.571 L481.161,856.571 L481.161734,855.894261 C481.161734,855.039065 481.815472,854.337269 482.66027,854.265765 L482.802759,854.259766 C483.709073,854.259766 484.443785,854.987171 484.443785,855.894261 L484.443,856.571 L497.571,856.571 L497.57199,855.894261 C497.57199,855.039065 498.225728,854.337269 499.070526,854.265765 L499.213016,854.259766 C500.119329,854.259766 500.854041,854.987171 500.854041,855.894261 L500.854,856.571 L513.982,856.571 L513.982247,855.894261 C513.982247,855.039065 514.635985,854.337269 515.480783,854.265765 L515.623272,854.259766 C516.529586,854.259766 517.264298,854.987171 517.264298,855.894261 L517.264,856.571 L530.392,856.571 L530.392503,855.894261 C530.392503,855.039065 531.046241,854.337269 531.891039,854.265765 L532.033529,854.259766 C532.939842,854.259766 533.674554,854.987171 533.674554,855.894261 L533.674,856.571 L546.802,856.571 L546.802759,855.894261 C546.802759,855.039065 547.456498,854.337269 548.301296,854.265765 L548.443785,854.259766 C549.350098,854.259766 550.084811,854.987171 550.084811,855.894261 L550.084,856.571 L563.213,856.571 L563.213016,855.894261 C563.213016,855.039065 563.866754,854.337269 564.711552,854.265765 L564.854041,854.259766 C565.760355,854.259766 566.495067,854.987171 566.495067,855.894261 L566.495,856.571 L579.623,856.571 L579.623272,855.894261 C579.623272,855.039065 580.27701,854.337269 581.121808,854.265765 L581.264298,854.259766 C582.170611,854.259766 582.905324,854.987171 582.905324,855.894261 L582.905,856.571 L596.033,856.571 L596.033529,855.894261 C596.033529,855.039065 596.687267,854.337269 597.532065,854.265765 L597.674554,854.259766 C598.580868,854.259766 599.31558,854.987171 599.31558,855.894261 L599.315,856.571 L612.443,856.571 L612.443785,855.894261 C612.443785,855.039065 613.097523,854.337269 613.942321,854.265765 L614.084811,854.259766 C614.991124,854.259766 615.725836,854.987171 615.725836,855.894261 L615.725,856.571 L628.854,856.571 L628.854041,855.894261 C628.854041,855.039065 629.50778,854.337269 630.352578,854.265765 L630.495067,854.259766 C631.401381,854.259766 632.136093,854.987171 632.136093,855.894261 L632.136,856.571 L645.264,856.571 L645.264298,855.894261 C645.264298,855.039065 645.918036,854.337269 646.762834,854.265765 L646.905324,854.259766 C647.811637,854.259766 648.546349,854.987171 648.546349,855.894261 L648.546,856.571 L661.674,856.571 L661.674554,855.894261 C661.674554,855.039065 662.328293,854.337269 663.173091,854.265765 L663.31558,854.259766 C664.221893,854.259766 664.956606,854.987171 664.956606,855.894261 L664.956,856.571 L678.084,856.571 L678.084811,855.894261 C678.084811,855.039065 678.738549,854.337269 679.583347,854.265765 L679.725836,854.259766 C680.63215,854.259766 681.366862,854.987171 681.366862,855.894261 L681.366,856.571 L694.495,856.571 L694.495067,855.894261 C694.495067,855.039065 695.148805,854.337269 695.993603,854.265765 L696.136093,854.259766 C697.042406,854.259766 697.777118,854.987171 697.777118,855.894261 L697.777,856.571 L710.905,856.571 L710.905324,855.894261 C710.905324,855.039065 711.559062,854.337269 712.40386,854.265765 L712.546349,854.259766 C713.452663,854.259766 714.187375,854.987171 714.187375,855.894261 L714.187,856.571 L727.315,856.571 L727.31558,855.894261 C727.31558,855.039065 727.969318,854.337269 728.814116,854.265765 L728.956606,854.259766 C729.862919,854.259766 730.597631,854.987171 730.597631,855.894261 L730.597,856.571 L743.725,856.571 L743.725836,855.894261 C743.725836,855.039065 744.379575,854.337269 745.224373,854.265765 L745.366862,854.259766 C746.273175,854.259766 747.007888,854.987171 747.007888,855.894261 L747.007,856.571 L760.136,856.571 L760.136093,855.894261 C760.136093,855.039065 760.789831,854.337269 761.634629,854.265765 L761.777118,854.259766 C762.683432,854.259766 763.418144,854.987171 763.418144,855.894261 L763.418,856.571 L776.546,856.571 L776.546349,855.894261 C776.546349,855.039065 777.200087,854.337269 778.044885,854.265765 L778.187375,854.259766 C779.093688,854.259766 779.8284,854.987171 779.8284,855.894261 L779.828,856.571 L792.956,856.571 L792.956606,855.894261 C792.956606,855.039065 793.610344,854.337269 794.455142,854.265765 L794.597631,854.259766 C795.503945,854.259766 796.238657,854.987171 796.238657,855.894261 L796.238,856.571 L809.366,856.571 L809.366862,855.894261 C809.366862,855.039065 810.0206,854.337269 810.865398,854.265765 L811.007888,854.259766 C811.914201,854.259766 812.648913,854.987171 812.648913,855.894261 L812.648,856.571 L825.777,856.571 L825.777118,855.894261 C825.777118,855.039065 826.430857,854.337269 827.275655,854.265765 L827.418144,854.259766 C828.324457,854.259766 829.05917,854.987171 829.05917,855.894261 L829.059,856.571 L842.187,856.571 L842.187375,855.894261 C842.187375,855.039065 842.841113,854.337269 843.685911,854.265765 L843.8284,854.259766 C844.734714,854.259766 845.469426,854.987171 845.469426,855.894261 L845.469,856.571 L858.597,856.571 L858.597631,855.894261 C858.597631,855.039065 859.251369,854.337269 860.096167,854.265765 L860.238657,854.259766 C861.14497,854.259766 861.879682,854.987171 861.879682,855.894261 L861.879,856.571 L875.007,856.571 L875.007888,855.894261 C875.007888,855.039065 875.661626,854.337269 876.506424,854.265765 L876.648913,854.259766 C877.555227,854.259766 878.289939,854.987171 878.289939,855.894261 L878.289,856.571 L891.418,856.571 L891.418144,855.894261 C891.418144,855.039065 892.071882,854.337269 892.91668,854.265765 L893.05917,854.259766 C893.965483,854.259766 894.700195,854.987171 894.700195,855.894261 L894.7,856.571 L907.828,856.571 L907.8284,855.894261 C907.8284,855.039065 908.482139,854.337269 909.326937,854.265765 L909.469426,854.259766 C910.37574,854.259766 911.110452,854.987171 911.110452,855.894261 L911.11,856.571 L924.238,856.571 L924.238657,855.894261 C924.238657,855.039065 924.892395,854.337269 925.737193,854.265765 L925.879682,854.259766 C926.785996,854.259766 927.520708,854.987171 927.520708,855.894261 L927.52,856.571 L940.648,856.571 L940.648913,855.894261 C940.648913,855.039065 941.302652,854.337269 942.14745,854.265765 L942.289939,854.259766 C943.196252,854.259766 943.930965,854.987171 943.930965,855.894261 L943.93,856.571 L957.648,856.571 L957.648913,855.894261 C957.648913,855.039065 958.302652,854.337269 959.14745,854.265765 L959.289939,854.259766 C960.196252,854.259766 960.930965,854.987171 960.930965,855.894261 L960.93,856.571 L966,856.571 L966,854.667771 C966,853.619385 965.182829,852.756791 964.146808,852.68054 L963.997381,852.675061 L952.131,852.675 L952.13116,853.223999 C952.13116,854.080879 951.477422,854.784057 950.632624,854.855702 L950.490134,854.861714 C949.583821,854.861714 948.849109,854.117136 948.849109,853.223999 L948.849,852.675 L935.72,852.675 L935.720903,853.223999 C935.720903,854.080879 935.067165,854.784057 934.222367,854.855702 L934.079878,854.861714 C933.173564,854.861714 932.438852,854.117136 932.438852,853.223999 L932.438,852.675 L919.31,852.675 L919.310647,853.223999 C919.310647,854.080879 918.656909,854.784057 917.812111,854.855702 L917.669621,854.861714 C916.763308,854.861714 916.028596,854.117136 916.028596,853.223999 L916.028,852.675 L902.9,852.675 L902.900391,853.223999 C902.900391,854.080879 902.246652,854.784057 901.401854,854.855702 L901.259365,854.861714 C900.353052,854.861714 899.618339,854.117136 899.618339,853.223999 L899.618,852.675 L886.49,852.675 L886.490134,853.223999 C886.490134,854.080879 885.836396,854.784057 884.991598,854.855702 L884.849109,854.861714 C883.942795,854.861714 883.208083,854.117136 883.208083,853.223999 L883.208,852.675 L870.079,852.675 L870.079878,853.223999 C870.079878,854.080879 869.42614,854.784057 868.581342,854.855702 L868.438852,854.861714 C867.532539,854.861714 866.797827,854.117136 866.797827,853.223999 L866.797,852.675 L853.669,852.675 L853.669621,853.223999 C853.669621,854.080879 853.015883,854.784057 852.171085,854.855702 L852.028596,854.861714 C851.122282,854.861714 850.38757,854.117136 850.38757,853.223999 L850.387,852.675 L837.259,852.675 L837.259365,853.223999 C837.259365,854.080879 836.605627,854.784057 835.760829,854.855702 L835.618339,854.861714 C834.712026,854.861714 833.977314,854.117136 833.977314,853.223999 L833.977,852.675 L820.849,852.675 L820.849109,853.223999 C820.849109,854.080879 820.19537,854.784057 819.350572,854.855702 L819.208083,854.861714 C818.301769,854.861714 817.567057,854.117136 817.567057,853.223999 L817.567,852.675 L804.438,852.675 L804.438852,853.223999 C804.438852,854.080879 803.785114,854.784057 802.940316,854.855702 L802.797827,854.861714 C801.891513,854.861714 801.156801,854.117136 801.156801,853.223999 L801.156,852.675 L788.028,852.675 L788.028596,853.223999 C788.028596,854.080879 787.374857,854.784057 786.53006,854.855702 L786.38757,854.861714 C785.481257,854.861714 784.746544,854.117136 784.746544,853.223999 L784.746,852.675 L771.618,852.675 L771.618339,853.223999 C771.618339,854.080879 770.964601,854.784057 770.119803,854.855702 L769.977314,854.861714 C769.071,854.861714 768.336288,854.117136 768.336288,853.223999 L768.336,852.675 L755.208,852.675 L755.208083,853.223999 C755.208083,854.080879 754.554345,854.784057 753.709547,854.855702 L753.567057,854.861714 C752.660744,854.861714 751.926032,854.117136 751.926032,853.223999 L751.926,852.675 L738.797,852.675 L738.797827,853.223999 C738.797827,854.080879 738.144088,854.784057 737.29929,854.855702 L737.156801,854.861714 C736.250487,854.861714 735.515775,854.117136 735.515775,853.223999 L735.515,852.675 L722.387,852.675 L722.38757,853.223999 C722.38757,854.080879 721.733832,854.784057 720.889034,854.855702 L720.746544,854.861714 C719.840231,854.861714 719.105519,854.117136 719.105519,853.223999 L719.105,852.675 L705.977,852.675 L705.977314,853.223999 C705.977314,854.080879 705.323575,854.784057 704.478777,854.855702 L704.336288,854.861714 C703.429975,854.861714 702.695262,854.117136 702.695262,853.223999 L702.695,852.675 L689.567,852.675 L689.567057,853.223999 C689.567057,854.080879 688.913319,854.784057 688.068521,854.855702 L687.926032,854.861714 C687.019718,854.861714 686.285006,854.117136 686.285006,853.223999 L686.285,852.675 L673.156,852.675 L673.156801,853.223999 C673.156801,854.080879 672.503063,854.784057 671.658265,854.855702 L671.515775,854.861714 C670.609462,854.861714 669.87475,854.117136 669.87475,853.223999 L669.874,852.675 L656.746,852.675 L656.746544,853.223999 C656.746544,854.080879 656.092806,854.784057 655.248008,854.855702 L655.105519,854.861714 C654.199205,854.861714 653.464493,854.117136 653.464493,853.223999 L653.464,852.675 L640.336,852.675 L640.336288,853.223999 C640.336288,854.080879 639.68255,854.784057 638.837752,854.855702 L638.695262,854.861714 C637.788949,854.861714 637.054237,854.117136 637.054237,853.223999 L637.054,852.675 L623.926,852.675 L623.926032,853.223999 C623.926032,854.080879 623.272293,854.784057 622.427495,854.855702 L622.285006,854.861714 C621.378693,854.861714 620.64398,854.117136 620.64398,853.223999 L620.643,852.675 L607.515,852.675 L607.515775,853.223999 C607.515775,854.080879 606.862037,854.784057 606.017239,854.855702 L605.87475,854.861714 C604.968436,854.861714 604.233724,854.117136 604.233724,853.223999 L604.233,852.675 L591.105,852.675 L591.105519,853.223999 C591.105519,854.080879 590.451781,854.784057 589.606983,854.855702 L589.464493,854.861714 C588.55818,854.861714 587.823468,854.117136 587.823468,853.223999 L587.823,852.675 L574.695,852.675 L574.695262,853.223999 C574.695262,854.080879 574.041524,854.784057 573.196726,854.855702 L573.054237,854.861714 C572.147923,854.861714 571.413211,854.117136 571.413211,853.223999 L571.413,852.675 L558.285,852.675 L558.285006,853.223999 C558.285006,854.080879 557.631268,854.784057 556.78647,854.855702 L556.64398,854.861714 C555.737667,854.861714 555.002955,854.117136 555.002955,853.223999 L555.002,852.675 L541.874,852.675 L541.87475,853.223999 C541.87475,854.080879 541.221011,854.784057 540.376213,854.855702 L540.233724,854.861714 C539.327411,854.861714 538.592698,854.117136 538.592698,853.223999 L538.592,852.675 L525.464,852.675 L525.464493,853.223999 C525.464493,854.080879 524.810755,854.784057 523.965957,854.855702 L523.823468,854.861714 C522.917154,854.861714 522.182442,854.117136 522.182442,853.223999 L522.182,852.675 L509.054,852.675 L509.054237,853.223999 C509.054237,854.080879 508.400499,854.784057 507.555701,854.855702 L507.413211,854.861714 C506.506898,854.861714 505.772185,854.117136 505.772185,853.223999 L505.772,852.675 L492.643,852.675 L492.64398,853.223999 C492.64398,854.080879 491.990242,854.784057 491.145444,854.855702 L491.002955,854.861714 C490.096641,854.861714 489.361929,854.117136 489.361929,853.223999 L489.361,852.675 L476.233,852.675 L476.233724,853.223999 C476.233724,854.080879 475.579986,854.784057 474.735188,854.855702 L474.592698,854.861714 C473.686385,854.861714 472.951673,854.117136 472.951673,853.223999 L472.951,852.675 L459.823,852.675 L459.823468,853.223999 C459.823468,854.080879 459.169729,854.784057 458.324931,854.855702 L458.182442,854.861714 C457.276128,854.861714 456.541416,854.117136 456.541416,853.223999 L456.541,852.675 L443.413,852.675 L443.413211,853.223999 C443.413211,854.080879 442.759473,854.784057 441.914675,854.855702 L441.772185,854.861714 C440.865872,854.861714 440.13116,854.117136 440.13116,853.223999 L440.131,852.675 L427.002,852.675 L427.002955,853.223999 C427.002955,854.080879 426.349216,854.784057 425.504418,854.855702 L425.361929,854.861714 C424.455616,854.861714 423.720903,854.117136 423.720903,853.223999 L423.72,852.675 L410.592,852.675 L410.592698,853.223999 C410.592698,854.080879 409.93896,854.784057 409.094162,854.855702 L408.951673,854.861714 C408.045359,854.861714 407.310647,854.117136 407.310647,853.223999 L407.31,852.675 L394.182,852.675 L394.182442,853.223999 C394.182442,854.080879 393.528704,854.784057 392.683906,854.855702 L392.541416,854.861714 C391.635103,854.861714 390.900391,854.117136 390.900391,853.223999 L390.9,852.675 L377.772,852.675 L377.772185,853.223999 C377.772185,854.080879 377.118447,854.784057 376.273649,854.855702 L376.13116,854.861714 C375.224846,854.861714 374.490134,854.117136 374.490134,853.223999 L374.49,852.675 L361.361,852.675 L361.361929,853.223999 C361.361929,854.080879 360.708191,854.784057 359.863393,854.855702 L359.720903,854.861714 C358.81459,854.861714 358.079878,854.117136 358.079878,853.223999 L358.079,852.675 L344.951,852.675 L344.951673,853.223999 C344.951673,854.080879 344.297934,854.784057 343.453136,854.855702 L343.310647,854.861714 C342.404334,854.861714 341.669621,854.117136 341.669621,853.223999 L341.669,852.675 L328.541,852.675 L328.541416,853.223999 C328.541416,854.080879 327.887678,854.784057 327.04288,854.855702 L326.900391,854.861714 C325.994077,854.861714 325.259365,854.117136 325.259365,853.223999 L325.259,852.675 L312.131,852.675 L312.13116,853.223999 C312.13116,854.080879 311.477422,854.784057 310.632624,854.855702 L310.490134,854.861714 C309.583821,854.861714 308.849109,854.117136 308.849109,853.223999 L308.849,852.675 L295.72,852.675 L295.720903,853.223999 C295.720903,854.080879 295.067165,854.784057 294.222367,854.855702 L294.079878,854.861714 C293.173564,854.861714 292.438852,854.117136 292.438852,853.223999 L292.438,852.675 L279.31,852.675 L279.310647,853.223999 C279.310647,854.080879 278.656909,854.784057 277.812111,854.855702 L277.669621,854.861714 C276.763308,854.861714 276.028596,854.117136 276.028596,853.223999 L276.028,852.675 L262.9,852.675 L262.900391,853.223999 C262.900391,854.080879 262.246652,854.784057 261.401854,854.855702 L261.259365,854.861714 C260.353052,854.861714 259.618339,854.117136 259.618339,853.223999 L259.618,852.675 L246.49,852.675 L246.490134,853.223999 C246.490134,854.080879 245.836396,854.784057 244.991598,854.855702 L244.849109,854.861714 C243.942795,854.861714 243.208083,854.117136 243.208083,853.223999 L243.208,852.675 L230.079,852.675 L230.079878,853.223999 C230.079878,854.080879 229.42614,854.784057 228.581342,854.855702 L228.438852,854.861714 C227.532539,854.861714 226.797827,854.117136 226.797827,853.223999 L226.797,852.675 L213.669,852.675 L213.669621,853.223999 C213.669621,854.080879 213.015883,854.784057 212.171085,854.855702 L212.028596,854.861714 C211.122282,854.861714 210.38757,854.117136 210.38757,853.223999 L210.387,852.675 L197.259,852.675 L197.259365,853.223999 C197.259365,854.080879 196.605627,854.784057 195.760829,854.855702 L195.618339,854.861714 C194.712026,854.861714 193.977314,854.117136 193.977314,853.223999 L193.977,852.675 L180.849,852.675 L180.849109,853.223999 C180.849109,854.080879 180.19537,854.784057 179.350572,854.855702 L179.208083,854.861714 C178.301769,854.861714 177.567057,854.117136 177.567057,853.223999 L177.567,852.675 L164.438,852.675 L164.438852,853.223999 C164.438852,854.080879 163.785114,854.784057 162.940316,854.855702 L162.797827,854.861714 C161.891513,854.861714 161.156801,854.117136 161.156801,853.223999 L161.156,852.675 L148.028,852.675 L148.028596,853.223999 C148.028596,854.080879 147.374857,854.784057 146.53006,854.855702 L146.38757,854.861714 C145.481257,854.861714 144.746544,854.117136 144.746544,853.223999 L144.746,852.675 L131.618,852.675 L131.618339,853.223999 C131.618339,854.080879 130.964601,854.784057 130.119803,854.855702 L129.977314,854.861714 C129.071,854.861714 128.336288,854.117136 128.336288,853.223999 L128.336,852.675 L115.208,852.675 L115.208083,853.223999 C115.208083,854.080879 114.554345,854.784057 113.709547,854.855702 L113.567057,854.861714 C112.660744,854.861714 111.926032,854.117136 111.926032,853.223999 L111.926,852.675 L98.797,852.675 L98.7978265,853.223999 C98.7978265,854.080879 98.1440883,854.784057 97.2992903,854.855702 L97.1568009,854.861714 C96.2504874,854.861714 95.5157752,854.117136 95.5157752,853.223999 L95.515,852.675 L82.387,852.675 L82.3875701,853.223999 C82.3875701,854.080879 81.7338319,854.784057 80.8890339,854.855702 L80.7465445,854.861714 C79.840231,854.861714 79.1055188,854.117136 79.1055188,853.223999 L79.105,852.675 Z M972.990623,8 L59.0093771,8 C30.8296427,8 8,30.8327767 8,59.0083212 L8,59.0083212 L8,805.563572 C8,833.736238 30.8313447,856.571893 58.996483,856.571893 L58.996483,856.571893 L64,856.571 L64,854.667771 C64,852.528875 65.6860309,850.783747 67.802935,850.679946 L68.0026187,850.675061 L963.997381,850.675061 C966.206498,850.675061 968,852.463667 968,854.667771 L968,854.667771 L968,856.571 L972.990404,856.571893 C1000.87931,856.571893 1023.54269,834.188459 1023.99317,806.407067 L1024,805.563572 L1024,59.0083212 C1024,30.8358649 1001.16309,8 972.990623,8 L972.990623,8 Z M530.990668,712.089321 C536.173439,712.089321 542.223708,715.165955 545.547102,719.503987 L545.764582,719.795038 L547.079928,721.600603 L545.140474,722.709078 C540.773868,725.204765 538.252676,729.433079 538.252676,734.675797 C538.252676,740.02561 541.608054,745.078887 546.552556,747.205058 L546.851119,747.329094 L548.618621,748.037892 L547.997246,749.837989 C544.337705,760.439522 536.556868,770.03818 529.890001,770.03818 C527.613139,770.03818 526.087435,769.691403 523.545812,768.747489 L522.688223,768.421899 C520.13092,767.435292 518.938618,767.122259 517.100406,767.122259 C515.457294,767.122259 514.30928,767.376609 512.247356,768.131981 L511.402561,768.449056 C508.339106,769.616772 506.714795,770.03818 504.188395,770.03818 C496.89598,770.03818 487.930442,758.372769 485.23124,747.35769 C482.577448,736.296761 483.056232,727.959478 487.934773,720.335038 C490.968979,715.551241 497.576268,712.089321 503.2092,712.089321 C505.839374,712.089321 507.806684,712.512834 510.737846,713.518105 L512.692691,714.201051 C512.843716,714.252371 512.984636,714.299347 513.121886,714.344076 C514.560667,714.812966 515.654986,715.041883 516.809914,715.064396 L517.126702,715.065444 C518.348732,715.081512 519.507802,714.855777 521.076076,714.344805 L521.74096,714.121054 L522.964617,713.691062 C526.176933,712.561217 528.214694,712.089321 530.990668,712.089321 Z M530.990668,716.089321 C528.883135,716.089321 527.28903,716.43279 524.727876,717.312796 L523.316032,717.808334 C522.935653,717.941295 522.620763,718.048479 522.315234,718.148026 C520.515514,718.734407 519.044671,719.039006 517.51151,719.06453 L517.126695,719.065098 C515.397864,719.087824 513.833528,718.783051 511.882467,718.147211 L511.410747,717.990072 L509.908375,717.464463 C507.086659,716.471992 505.43415,716.089321 503.2092,716.089321 C498.916749,716.089321 493.596306,718.876992 491.308352,722.4842 C487.114894,729.037982 486.696678,736.320572 489.118575,746.415069 C491.427945,755.83921 499.266439,766.03818 504.188395,766.03818 C505.920797,766.03818 507.095392,765.77625 509.259685,764.980674 L510.099905,764.66486 C513.057286,763.537895 514.664763,763.122259 517.100406,763.122259 C519.323315,763.122259 520.834284,763.463374 523.311599,764.380841 L524.900709,764.983746 C527.038233,765.779473 528.184471,766.03818 529.890001,766.03818 C533.898942,766.03818 539.899565,759.065692 543.314723,750.894926 L543.475377,750.504959 L543.593,750.211 L543.410547,750.112212 C538.084384,747.152358 534.531399,741.499558 534.268354,735.402376 L534.256532,735.03603 L534.252676,734.675797 C534.252676,729.035947 536.597378,724.213678 540.681085,720.921158 L540.982988,720.682982 L541.142,720.561 L540.952046,720.378079 C538.4195,718.003615 534.795642,716.322831 531.64853,716.111773 L531.300893,716.09441 L530.990668,716.089321 Z M534.188709,691.982225 L534.312576,694.077762 C534.863361,703.395762 527.827432,711.580878 518.346502,712.705644 L518.014788,712.742007 L515.955651,712.949229 L515.818899,710.884215 C515.204054,701.59979 522.255257,693.440969 531.768759,692.246151 L532.101616,692.207306 L534.188709,691.982225 Z M530.254,696.61 L530.013369,696.676434 C524.658415,698.213479 520.700569,702.633274 519.921773,707.870192 L519.878875,708.185371 L519.859,708.356 L520.115311,708.287331 C525.438331,706.781984 529.388326,702.350672 530.19215,697.081665 L530.23659,696.764536 L530.254,696.61 Z M963.558834,65.5353371 C967.427737,65.5353371 970.564103,68.6723878 970.564103,72.5393938 L970.564103,628.758738 C970.564103,632.626971 967.428417,635.762794 963.558834,635.762794 L68.4411656,635.762794 C64.5722628,635.762794 61.4358974,632.625744 61.4358974,628.758738 L61.4358974,72.5393938 C61.4358974,68.6711601 64.5715826,65.5353371 68.4411656,65.5353371 L963.558834,65.5353371 Z M963.558834,69.5353371 L68.4411656,69.5353371 C66.8401583,69.5353371 65.5323685,70.7858156 65.4409971,72.3628687 L65.4358974,72.5393938 L65.4358974,628.758738 C65.4358974,630.416982 66.7817794,631.762794 68.4411656,631.762794 L963.558834,631.762794 C965.219138,631.762794 966.564103,630.417973 966.564103,628.758738 L966.564103,72.5393938 C966.564103,70.8811492 965.218221,69.5353371 963.558834,69.5353371 Z" id="iMac-G5"></path>
            </g>
        </g>
    </g>
</svg>